<svg xmlns="http://www.w3.org/2000/svg" viewBox="0 0 32 32">
  <rect width="32" height="32" fill="#000"/>
  <path fill="#8F9396" d="M4 8.2 10.2 6.4 10.2 8.6 4 10.4z"/>
  <path fill="#052E5A" d="M10.2 6.4 26.4 6.4 26.4 8.6 10.2 8.6z"/>
  <path fill="#8F9396" d="M4 12.2 10.2 10.4 10.2 12.6 4 14.4z"/>
  <path fill="#052E5A" d="M10.2 10.4 26.4 10.4 26.4 12.6 10.2 12.6z"/>
  <path fill="#8F9396" d="M4 16.2 10.2 14.4 10.2 16.6 4 18.4z"/>
  <path fill="#052E5A" d="M10.2 14.4 26.4 14.4 26.4 16.6 10.2 16.6z"/>
  <path fill="#8F9396" d="M4 20.2 10.2 18.4 10.2 20.6 4 22.4z"/>
  <path fill="#052E5A" d="M10.2 18.4 26.4 18.4 26.4 20.6 10.2 20.6z"/>
</svg>
